<svg
  xmlns="http://www.w3.org/2000/svg" xmlns:xlink="http://www.w3.org/1999/xlink"
  version="1.0"
  height="32"
  width="32"
  viewBox="0 0 512.000000 512.000000"
  preserveAspectRatio="xMidYMid meet"
>
  <g
    transform="translate(0.000000,512.000000) scale(0.100000,-0.100000)"
    stroke="none"
  >
    <path
      d="M1380 3863 c-63 -23 -151 -113 -173 -177 -35 -101 -14 -221 51 -304 17 -21 59 -54 94 -72 55 -30 72 -34 138 -34 91 -1 154 25 217 86 61 60 87 126 87 218 1 125 -54 214 -166 270 -52 25 -72 30 -132 29 -39 0 -91 -8 -116 -16z m163 -104 c50 -14 113 -71 128 -116 29 -88 -13 -193 -93 -232 -192 -92 -368 149 -218 299 53 53 112 69 183 49z"
    />
    <path
      d="M3492 3850 c-112 -56 -167 -145 -166 -270 0 -128 65 -230 179 -282 74 -34 181 -31 253 5 108 56 172 158 172 275 0 86 -26 148 -90 213 -65 66 -122 89 -220 89 -54 0 -78 -6 -128 -30z m189 -92 c84 -28 133 -96 132 -183 0 -78 -36 -131 -112 -170 -78 -39 -199 3 -241 85 -52 102 -2 227 106 265 48 17 72 18 115 3z"
    />
    <path
      d="M1268 3196 c-26 -7 -62 -25 -82 -39 -75 -58 -74 -53 -138 -496 -65 -448 -66 -467 -13 -557 39 -67 85 -87 283 -127 95 -19 175 -37 179 -40 3 -4 0 -121 -7 -260 -12 -252 -12 -255 9 -303 29 -64 46 -82 106 -110 92 -44 204 -29 279 38 73 64 76 77 97 491 21 406 21 417 -34 489 -47 62 -93 82 -267 117 -85 18 -160 34 -166 36 -7 2 0 75 22 232 42 286 43 341 8 411 -30 61 -74 98 -140 118 -56 17 -74 17 -136 0z m148 -137 c46 -43 47 -74 9 -339 -43 -301 -44 -320 -7 -361 26 -29 40 -34 213 -70 178 -37 185 -39 217 -73 38 -43 37 -15 16 -441 -11 -214 -21 -331 -30 -353 -10 -24 -26 -38 -60 -53 -58 -26 -106 -19 -147 22 l-30 31 6 156 c4 86 10 225 13 307 l7 150 -224 45 c-249 50 -271 60 -285 135 -8 46 89 762 110 811 29 64 139 83 192 33z"
    />
    <path
      d="M3712 3196 c-62 -20 -106 -59 -136 -118 -34 -68 -34 -119 4 -383 16 -116 30 -222 30 -236 0 -26 -2 -27 -164 -59 -95 -19 -180 -41 -202 -54 -47 -26 -100 -94 -114 -146 -16 -61 22 -761 44 -815 49 -115 187 -172 320 -133 55 17 118 81 135 137 11 37 11 89 1 293 -7 137 -10 251 -7 255 4 3 84 21 179 40 197 39 244 60 282 126 53 90 53 105 -9 538 -31 223 -63 411 -72 432 -43 99 -182 158 -291 123z m135 -123 c20 -9 40 -29 48 -47 22 -49 119 -765 111 -811 -14 -75 -36 -85 -285 -135 l-224 -45 6 -150 c4 -82 10 -221 13 -307 l7 -156 -30 -30 c-41 -42 -89 -49 -147 -23 -34 15 -50 29 -60 53 -10 23 -20 145 -32 387 -16 332 -16 356 0 385 9 18 27 38 39 45 12 8 103 31 201 51 168 35 182 40 208 69 37 41 36 60 -7 361 -27 190 -33 251 -25 280 21 79 98 111 177 73z"
    />
    <path
      d="M1982 2768 c-24 -31 -23 -57 2 -83 l25 -25 551 0 551 0 25 25 c25 26 26 52 2 83 -15 18 -1141 18 -1156 0z"
    />
    <path
      d="M1630 2592 c-28 -22 -30 -70 -4 -89 14 -10 106 -13 446 -13 l428 0 0 -520 0 -520 -145 0 c-134 0 -147 -2 -166 -21 -24 -24 -20 -65 8 -86 24 -19 702 -19 726 0 28 21 32 62 8 86 -19 19 -32 21 -166 21 l-145 0 0 520 0 520 428 0 c340 0 432 3 446 13 26 19 24 67 -4 89 -21 17 -69 18 -930 18 -861 0 -909 -1 -930 -18z"
    />
  </g>
</svg>